<?xml version="1.0" encoding="utf-8"?>
<!-- Generator: Adobe Illustrator 23.0.3, SVG Export Plug-In . SVG Version: 6.00 Build 0)  -->
<svg version="1.1" id="Layer_1" xmlns="http://www.w3.org/2000/svg" xmlns:xlink="http://www.w3.org/1999/xlink" x="0px" y="0px"
	 viewBox="0 0 60 60" style="enable-background:new 0 0 60 60;" xml:space="preserve">
<style type="text/css">
	.st0{fill:#333366;}
</style>
<g>
	<path class="st0" d="M30,0C13.49,0,0,13.43,0,30.04C0,46.65,13.49,60,30,60s30-13.51,30-30.04C59.92,13.43,46.51,0,30,0z M30,54.04
		C16.75,53.96,6.03,43.23,6.03,29.96S16.75,5.88,30.08,5.88c13.33,0,23.97,10.81,23.97,24.08S43.25,54.04,30,54.04z"/>
</g>
<polygon class="st0" points="31.1,17.18 33.8,26.55 43.58,26.21 35.46,31.67 38.81,40.84 31.1,34.84 23.38,40.84 26.73,31.67 
	18.62,26.21 28.39,26.55 "/>
</svg>
